<svg width="480" height="413" viewBox="0 0 480 413" fill="none" xmlns="http://www.w3.org/2000/svg">
<path d="M250.469 6.83933L454.221 134.211C462.203 139.2 465.554 149.129 462.229 157.935L385.719 360.539C382.816 368.226 375.459 373.312 367.243 373.312H112.757C104.541 373.312 97.1835 368.226 94.281 360.539L17.7714 157.935C14.446 149.129 17.7973 139.2 25.7788 134.211L229.531 6.83933C235.936 2.83532 244.064 2.83532 250.469 6.83933Z" fill="#FED438" fill-opacity="0.9" stroke="black" stroke-width="0.5"/>
<g filter="url(#filter0_d)">
<line y1="-2" x2="180" y2="-2" transform="matrix(0.872059 -0.4894 0.510675 0.859774 85 143.092)" stroke="black" stroke-width="4"/>
</g>
<g filter="url(#filter1_d)">
<path d="M99 325L99 133" stroke="black" stroke-width="3"/>
</g>
<g filter="url(#filter2_d)">
<line x1="378.5" y1="323.169" x2="378.5" y2="131.169" stroke="black" stroke-width="3"/>
</g>
<g filter="url(#filter3_d)">
<path d="M395.669 142.079L238.973 53.5" stroke="black" stroke-width="4"/>
</g>
<g clip-path="url(#clip0)" filter="url(#filter4_d)">
<path d="M190.672 110.747C171.852 122.992 155.042 138.549 144.609 153.396C132.045 171.281 127.491 188.93 131.375 204.651C135.225 220.244 148.975 234.873 167.503 243.097C169.806 244.116 170.219 244.188 170.219 243.533C170.219 243.406 169.497 242.66 168.638 241.878C162.639 236.51 157.603 231.543 154.338 227.813C151.278 224.301 151.261 224.283 148.923 221.099C138.663 207.107 135.62 191.496 140.175 176.321C145.727 157.89 161.642 136.893 185.258 116.915C188.352 114.295 193.078 110.492 193.68 110.146C193.92 110.001 193.92 109.892 193.748 109.491C193.628 109.218 193.491 109 193.439 109.018C193.388 109.018 192.133 109.801 190.672 110.747Z" fill="black"/>
<path d="M285.375 109.546C285.272 109.746 285.22 109.983 285.272 110.073C285.323 110.146 286.613 111.183 288.142 112.366C300.534 121.973 313.717 134.873 322.62 146.154C330.509 156.125 336.577 166.805 339.224 175.32C341.011 181.034 341.544 184.09 341.699 189.258C341.922 196.991 340.633 203.468 337.419 210.71C333.088 220.426 325.559 229.596 311.964 241.714L309.764 243.679L309.334 243.37C307.942 242.405 306.688 240.404 306 238.093C304.247 232.161 306.602 220.99 312.497 207.162C314.903 201.485 316.038 197.9 316.914 193.115C317.619 189.276 317.894 182.125 317.516 177.686C316.45 165.495 311.242 152.486 303.113 141.678C301.549 139.604 295.258 132.69 295.086 132.872C295.034 132.926 295.481 133.854 296.049 134.946C297.492 137.675 299.727 142.424 301.274 146.008C309.438 165.113 311.517 181.816 307.616 196.972C307.375 197.864 306.378 201.139 305.399 204.25C303.645 209.782 302.769 213.093 302.047 216.878C301.858 217.933 301.686 218.806 301.652 218.825C301.634 218.843 300.844 219.461 299.899 220.226C296.444 222.973 293.917 225.666 292.164 228.45C290.239 231.525 289.741 233.035 289.156 237.765C288.606 242.187 287.936 244.552 286.87 245.771C286.681 246.008 286.561 246.244 286.63 246.299C286.681 246.372 287.231 245.899 287.833 245.262C289.259 243.733 290.016 242.114 290.789 238.821C291.872 234.272 292.13 233.38 292.697 232.18C293.402 230.669 294.983 228.122 296.375 226.266C297.905 224.247 301.394 219.971 301.48 220.044C301.514 220.08 301.445 220.935 301.342 221.918C301.067 224.301 301.067 229.341 301.342 231.215C302.15 237.001 304.419 241.223 307.702 243.078C308.234 243.37 308.956 243.661 309.3 243.733C309.661 243.806 310.022 243.97 310.125 244.097C310.366 244.407 313.184 243.206 317.206 241.077C320.988 239.076 322.242 238.311 325.68 235.891C329.616 233.144 332.727 230.469 335.838 227.176C342.764 219.862 346.838 212.62 348.883 203.977C349.674 200.593 349.897 198.519 349.897 194.243C349.897 187.966 349.244 183.708 347.319 177.504C343.297 164.64 335.7 152.577 323.549 139.749C313.803 129.469 301.463 119.317 289.156 111.42C285.323 108.964 285.599 109.109 285.375 109.546Z" fill="black"/>
<path d="M183.023 134.91C178.452 139.458 174.017 145.517 170.683 151.758C163.017 166.168 160.628 181.761 163.945 195.954C164.822 199.665 165.784 202.522 167.641 206.889C170.941 214.658 173.312 222.1 174.378 228.086C174.877 230.924 174.911 235.418 174.464 237.365C173.862 239.876 172.573 242.096 171.009 243.333L170.305 243.879L170.872 243.77C172.642 243.406 175.289 241.132 176.561 238.857C177.781 236.656 178.658 233.599 179.002 230.233C179.208 228.268 179.122 223.683 178.847 221.299C178.761 220.68 178.727 220.171 178.744 220.171C178.881 220.171 183.316 225.775 184.416 227.303C185.842 229.323 187.458 232.143 187.853 233.308C187.991 233.744 188.42 235.4 188.798 237.001C189.675 240.786 189.881 241.441 190.723 243.151C191.205 244.134 191.686 244.843 192.356 245.462C193.439 246.481 193.852 246.663 193.164 245.808C192.064 244.407 191.514 242.533 190.947 238.148C190.259 232.98 189.881 231.743 188.111 228.905C186.1 225.648 183.745 223.1 179.93 220.044L178.555 218.952L178.228 217.151C177.592 213.548 176.698 210.127 174.859 204.341C172.195 195.881 171.387 192.315 170.889 186.62C170.631 183.708 170.786 176.503 171.147 173.592C172.728 161.292 177.369 147.719 184.673 134C184.966 133.454 185.137 133.017 185.052 133.017C184.983 133.017 184.072 133.872 183.023 134.91Z" fill="black"/>
<path d="M201.07 172.136C197.53 172.719 193.233 175.084 190.672 177.868L189.555 179.069L191.016 178.123C193.783 176.321 197.358 174.756 200.211 174.101C200.778 173.974 202.36 173.883 203.735 173.883C205.935 173.883 206.433 173.938 207.945 174.374C210.128 175.011 212.62 176.285 214.803 177.85C216.453 179.032 216.47 179.05 215.955 178.341C213.978 175.684 210.558 173.355 207.43 172.5C205.849 172.064 202.635 171.882 201.07 172.136Z" fill="black"/>
<path d="M271.195 172.3C269.081 172.828 267.277 173.628 265.592 174.847C264.612 175.539 262.687 177.413 261.983 178.341C261.45 179.05 261.45 179.05 263.1 177.868C268.05 174.32 272.467 173.155 277.486 174.065C280.27 174.575 284.413 176.358 287.197 178.232C289.552 179.833 286.922 177.158 284.327 175.302C281.164 173.064 278.517 172.136 274.891 172.045C273.069 171.991 272.278 172.045 271.195 172.3Z" fill="black"/>
<path d="M202.634 178.323C201.088 178.596 198.991 179.36 197.289 180.288L195.742 181.143L195.794 182.235C196 186.237 197.702 190.386 200.108 192.733C201.363 193.97 202.291 194.552 203.992 195.153C207.103 196.263 211.005 195.79 214.631 193.843C215.645 193.297 215.749 193.406 215.783 194.971C215.783 195.571 215.852 196.463 215.92 196.972C216.006 197.755 216.058 197.536 216.23 195.335C216.9 186.783 213.514 180.251 207.602 178.596C206.295 178.232 203.941 178.104 202.634 178.323Z" fill="black"/>
<path d="M274.117 178.268C270.044 178.869 266.727 181.707 265.111 185.983C264.561 187.438 263.942 190.368 263.856 191.969C263.805 193.152 264.062 197.664 264.183 197.536C264.234 197.5 264.337 196.572 264.406 195.517C264.492 194.443 264.595 193.534 264.63 193.497C264.664 193.461 265.3 193.716 266.039 194.061C268.634 195.317 270.061 195.662 272.57 195.681C274.53 195.681 274.977 195.626 276.197 195.189C280.648 193.625 283.587 189.221 284.361 182.999C284.498 181.78 284.498 181.343 284.344 181.143C284.034 180.743 281.13 179.305 279.789 178.887C277.761 178.268 275.716 178.032 274.117 178.268Z" fill="black"/>
<path d="M201.036 228.359C199.798 231.961 198.458 237.238 197.478 242.278C195.106 254.632 194.883 265.986 196.877 274.574C199.025 283.817 203.82 289.548 210.678 291.022C214.391 291.823 220.303 291.004 224.463 289.13L225.253 288.766L226.353 289.858C229.911 293.387 235.583 295.862 240.086 295.862C244.623 295.862 250.313 293.387 253.784 289.894L254.764 288.911L257.05 289.73C260.47 290.967 262.739 291.386 265.867 291.386C267.981 291.386 268.72 291.313 269.992 290.967C276.644 289.166 281.147 283.617 283.227 274.683C284.086 270.953 284.378 268.315 284.464 263.129C284.636 254.578 283.759 246.827 281.577 237.493C280.769 233.963 278.758 227.085 278.569 227.085C278.448 227.085 278.534 228.341 279.102 234.818C280.339 248.792 280.511 260.091 279.6 267.478C278.156 279.323 274.341 285.491 267.552 286.983C266.142 287.292 265.472 287.328 263.461 287.256C258.27 287.037 253.08 285.509 244.52 281.652C242.991 280.96 241.684 280.396 241.598 280.396C241.392 280.396 244.366 282.689 246.531 284.199C247.614 284.945 249.831 286.291 251.43 287.165L254.352 288.748L252.117 289.876C249.677 291.095 246.72 292.187 244.452 292.714C243.369 292.951 242.269 293.042 240.086 293.042C236.82 293.042 235.703 292.842 232.523 291.75C230.461 291.04 226.044 288.966 225.975 288.675C225.958 288.566 227.058 287.911 228.45 287.183C231.527 285.582 236.116 282.507 238.195 280.651L238.711 280.196L238.109 280.451C237.783 280.596 236.202 281.306 234.586 282.034C225.683 286 218.963 287.692 214.133 287.128C212.019 286.892 210.953 286.582 209.269 285.709C207.791 284.945 205.763 283.053 204.731 281.433C199.798 273.755 198.733 258.562 201.259 232.034C201.5 229.487 201.672 227.285 201.638 227.121C201.603 226.94 201.328 227.504 201.036 228.359Z" fill="black"/>
<path d="M235.101 246.754C227.35 247.591 222.967 250.229 221.317 255.051C220.733 256.779 220.458 259.49 220.733 261.055C221.3 264.366 223.448 267.824 226.697 270.717C232.558 275.92 239.605 277.467 246.462 275.029C251.464 273.246 256.173 269.043 258.408 264.348C259.37 262.329 259.662 260.873 259.525 258.744C259.13 251.958 255.245 248.3 247.03 246.99C244.881 246.663 237.387 246.499 235.101 246.754Z" fill="black"/>
<path d="M205.488 264.421C205.006 264.93 205.436 265.731 206.158 265.622C206.673 265.549 206.966 265.021 206.725 264.603C206.484 264.221 205.78 264.112 205.488 264.421Z" fill="black"/>
<path d="M273.499 264.639C273.241 265.24 273.567 265.695 274.169 265.622C275.114 265.495 275.097 264.348 274.152 264.239C273.791 264.185 273.636 264.294 273.499 264.639Z" fill="black"/>
<path d="M213.067 265.495C212.225 265.822 212.552 267.114 213.48 267.114C213.927 267.114 214.339 266.423 214.167 265.949C214.013 265.549 213.497 265.313 213.067 265.495Z" fill="black"/>
<path d="M219.169 265.513C218.653 265.931 218.705 266.641 219.272 267.023C220.097 267.605 220.991 266.441 220.32 265.658C219.959 265.24 219.564 265.204 219.169 265.513Z" fill="black"/>
<path d="M259.937 265.658C259.748 265.858 259.594 266.131 259.594 266.259C259.594 267.187 260.986 267.496 261.347 266.659C261.502 266.313 261.484 266.131 261.244 265.749C260.9 265.203 260.402 265.167 259.937 265.658Z" fill="black"/>
<path d="M266.125 265.84C265.747 266.604 266.348 267.296 267.156 267.023C267.586 266.877 267.792 266.113 267.5 265.749C267.173 265.349 266.348 265.404 266.125 265.84Z" fill="black"/>
<path d="M270.302 270.589C269.717 270.808 269.752 271.772 270.336 272.063C270.697 272.227 270.817 272.209 271.109 271.936C271.78 271.299 271.127 270.243 270.302 270.589Z" fill="black"/>
<path d="M208.891 270.917C208.547 271.608 209.251 272.409 209.905 272.045C210.661 271.608 210.437 270.571 209.578 270.571C209.251 270.571 209.011 270.698 208.891 270.917Z" fill="black"/>
<path d="M215.353 271.681C214.734 272.19 214.734 273.136 215.353 273.646C215.611 273.864 215.938 274.028 216.109 274.028C216.694 274.028 217.313 273.318 217.313 272.663C217.313 272.008 216.694 271.299 216.109 271.299C215.938 271.299 215.611 271.463 215.353 271.681Z" fill="black"/>
<path d="M263.289 271.754C262.206 272.9 263.599 274.665 264.802 273.664C265.403 273.155 265.438 272.209 264.888 271.663C264.389 271.171 263.788 271.208 263.289 271.754Z" fill="black"/>
<path d="M221.128 273.155C220.716 273.719 220.733 274.192 221.163 274.665C221.403 274.92 221.713 275.12 221.867 275.12C222.349 275.12 223.019 274.246 222.881 273.791C222.692 273.136 222.452 272.936 221.867 272.936C221.558 272.936 221.231 273.045 221.128 273.155Z" fill="black"/>
<path d="M257.617 273.227C257.187 273.682 257.342 274.592 257.909 274.919C258.339 275.174 258.408 275.174 258.855 274.829C259.439 274.355 259.542 273.955 259.181 273.391C258.855 272.863 258.047 272.772 257.617 273.227Z" fill="black"/>
<path d="M211.692 277.303C210.936 277.631 211.039 278.959 211.812 279.214C212.775 279.541 213.462 278.013 212.637 277.412C212.208 277.085 212.208 277.085 211.692 277.303Z" fill="black"/>
<path d="M267.534 277.412C266.812 277.94 267.242 279.305 268.136 279.305C268.48 279.305 269.047 278.613 269.047 278.213C269.047 277.813 268.48 277.121 268.136 277.121C268.016 277.121 267.741 277.249 267.534 277.412Z" fill="black"/>
<path d="M217.862 277.703C217.398 278.195 217.759 278.941 218.464 278.941C218.962 278.941 219.289 278.34 219.031 277.849C218.825 277.449 218.189 277.358 217.862 277.703Z" fill="black"/>
<path d="M261.347 277.649C261.209 277.722 261.141 278.031 261.175 278.322C261.209 278.777 261.295 278.85 261.725 278.85C262.344 278.85 262.688 278.358 262.413 277.885C262.189 277.54 261.673 277.412 261.347 277.649Z" fill="black"/>
</g>
<g filter="url(#filter5_d)">
<path d="M132.481 324.8C132.677 325.329 132.86 325.756 133.031 326.082C133.21 326.399 133.385 326.651 133.556 326.838C133.727 327.026 133.897 327.168 134.068 327.266C134.247 327.355 134.435 327.432 134.63 327.498L135.204 327.705L135.106 330.073C134.569 330.024 133.958 329.98 133.275 329.939C132.591 329.898 131.867 329.878 131.102 329.878C130.288 329.878 129.507 329.898 128.758 329.939C128.018 329.98 127.342 330.024 126.732 330.073L126.83 327.705C127.253 327.648 127.619 327.607 127.928 327.583C128.237 327.559 128.547 327.546 128.856 327.546L128.075 325.02C127.342 325.036 126.504 325.064 125.56 325.105C124.624 325.138 123.648 325.186 122.63 325.251C122.516 325.536 122.431 325.789 122.374 326.008C122.325 326.228 122.301 326.423 122.301 326.594C122.301 326.928 122.39 327.172 122.569 327.327C122.748 327.473 123.001 327.571 123.326 327.62L123.802 327.705L123.705 330.073C123.452 330.041 123.151 330.008 122.801 329.976C122.5 329.951 122.13 329.931 121.69 329.915C121.259 329.89 120.755 329.878 120.177 329.878C119.892 329.878 119.632 329.882 119.396 329.89C119.168 329.89 118.928 329.898 118.675 329.915C118.423 329.923 118.138 329.939 117.821 329.963C117.512 329.988 117.137 330.024 116.698 330.073L116.795 327.705C116.893 327.689 117.015 327.668 117.162 327.644C117.284 327.628 117.434 327.611 117.613 327.595C117.8 327.579 118.012 327.563 118.248 327.546L124.706 313.02L127.831 312.52L132.481 324.8ZM123.656 322.249H127.22L125.78 317.549H125.279L123.656 322.249ZM138.121 327.546C138.154 327.074 138.182 326.554 138.207 325.984C138.231 325.406 138.255 324.812 138.28 324.202C138.312 323.583 138.337 322.961 138.353 322.334C138.377 321.707 138.398 321.109 138.414 320.54C138.43 319.962 138.443 319.425 138.451 318.928C138.459 318.432 138.463 318.005 138.463 317.646C138.463 317.199 138.426 316.837 138.353 316.56C138.28 316.283 138.174 316.068 138.036 315.913C137.905 315.75 137.743 315.636 137.547 315.571C137.352 315.498 137.132 315.441 136.888 315.4L136.412 315.327L136.522 312.947C136.896 312.996 137.267 313.036 137.633 313.069C137.942 313.101 138.276 313.13 138.634 313.154C138.992 313.171 139.313 313.179 139.598 313.179C140.078 313.179 140.546 313.167 141.002 313.142C141.466 313.11 141.934 313.077 142.406 313.044C142.886 313.004 143.374 312.971 143.871 312.947C144.375 312.914 144.908 312.898 145.47 312.898C146.804 312.898 148.001 313.093 149.059 313.484C150.125 313.866 151.024 314.42 151.756 315.144C152.497 315.86 153.062 316.735 153.453 317.769C153.844 318.794 154.039 319.945 154.039 321.223C154.039 321.809 153.982 322.436 153.868 323.103C153.754 323.77 153.559 324.434 153.282 325.093C153.006 325.752 152.631 326.387 152.159 326.997C151.687 327.607 151.097 328.149 150.389 328.621C149.681 329.084 148.835 329.455 147.85 329.731C146.874 330.008 145.738 330.146 144.444 330.146C144.037 330.146 143.631 330.13 143.224 330.098C142.817 330.073 142.402 330.045 141.979 330.012C141.555 329.98 141.124 329.951 140.685 329.927C140.253 329.894 139.806 329.878 139.342 329.878C139.212 329.878 139.024 329.882 138.78 329.89C138.544 329.898 138.272 329.91 137.962 329.927C137.661 329.935 137.34 329.955 136.998 329.988C136.656 330.012 136.323 330.041 135.997 330.073L136.095 327.705C136.233 327.681 136.371 327.66 136.51 327.644C136.648 327.628 136.795 327.616 136.949 327.607C137.112 327.591 137.287 327.579 137.474 327.571C137.669 327.563 137.885 327.555 138.121 327.546ZM142.638 315.62C142.589 317.305 142.544 318.729 142.503 319.893C142.471 321.056 142.442 322.017 142.418 322.773C142.394 323.53 142.373 324.116 142.357 324.531C142.349 324.946 142.341 325.251 142.333 325.447C142.324 325.642 142.32 325.76 142.32 325.801C142.32 325.841 142.32 325.866 142.32 325.874C142.32 326.151 142.357 326.383 142.43 326.57C142.503 326.757 142.634 326.912 142.821 327.034C143.008 327.148 143.268 327.229 143.602 327.278C143.936 327.327 144.367 327.351 144.896 327.351C145.165 327.351 145.466 327.314 145.799 327.241C146.141 327.168 146.483 327.042 146.825 326.863C147.175 326.676 147.512 326.431 147.838 326.13C148.172 325.829 148.465 325.447 148.717 324.983C148.977 324.519 149.185 323.97 149.339 323.335C149.494 322.692 149.571 321.947 149.571 321.101C149.571 320.751 149.543 320.369 149.486 319.954C149.429 319.539 149.327 319.128 149.181 318.721C149.042 318.306 148.847 317.907 148.595 317.524C148.351 317.142 148.041 316.804 147.667 316.511C147.293 316.218 146.845 315.986 146.324 315.815C145.812 315.636 145.209 315.547 144.518 315.547C144.168 315.547 143.818 315.555 143.468 315.571C143.126 315.579 142.849 315.596 142.638 315.62ZM155.821 321.602C155.821 320.34 156.041 319.156 156.48 318.049C156.92 316.943 157.547 315.982 158.36 315.168C159.182 314.347 160.175 313.7 161.339 313.228C162.503 312.756 163.805 312.52 165.245 312.52C166.596 312.52 167.788 312.756 168.822 313.228C169.855 313.7 170.722 314.334 171.422 315.132C172.13 315.921 172.663 316.837 173.021 317.878C173.387 318.92 173.57 320.011 173.57 321.15C173.57 322.004 173.465 322.83 173.253 323.628C173.049 324.417 172.757 325.158 172.374 325.85C172 326.541 171.544 327.176 171.007 327.754C170.47 328.324 169.872 328.812 169.212 329.219C168.553 329.626 167.841 329.939 167.076 330.159C166.311 330.387 165.51 330.5 164.671 330.5C163.158 330.5 161.843 330.264 160.729 329.792C159.622 329.32 158.702 328.682 157.97 327.876C157.245 327.062 156.704 326.118 156.346 325.044C155.996 323.962 155.821 322.814 155.821 321.602ZM164.549 315.229C163.825 315.229 163.194 315.404 162.657 315.754C162.12 316.104 161.673 316.56 161.314 317.122C160.965 317.675 160.7 318.298 160.521 318.989C160.35 319.673 160.265 320.352 160.265 321.028C160.265 321.939 160.37 322.806 160.582 323.628C160.794 324.442 161.095 325.158 161.485 325.776C161.884 326.387 162.36 326.875 162.914 327.241C163.475 327.599 164.102 327.778 164.793 327.778C165.518 327.778 166.148 327.607 166.686 327.266C167.223 326.916 167.666 326.464 168.016 325.911C168.374 325.349 168.639 324.722 168.81 324.031C168.98 323.339 169.066 322.647 169.066 321.956C169.066 321.052 168.96 320.194 168.749 319.38C168.545 318.566 168.248 317.854 167.857 317.244C167.467 316.625 166.991 316.137 166.429 315.779C165.876 315.413 165.249 315.229 164.549 315.229ZM181.761 315.706C181.729 316.178 181.696 316.694 181.664 317.256C181.639 317.817 181.615 318.399 181.59 319.001C181.566 319.596 181.542 320.198 181.517 320.808C181.501 321.41 181.485 321.992 181.468 322.554C181.46 323.107 181.452 323.628 181.444 324.116C181.436 324.596 181.432 325.015 181.432 325.374C181.432 325.829 181.468 326.195 181.542 326.472C181.615 326.749 181.716 326.969 181.847 327.131C181.985 327.286 182.152 327.4 182.347 327.473C182.542 327.538 182.762 327.587 183.006 327.62L183.482 327.705L183.385 330.073C183.019 330.041 182.62 330.008 182.188 329.976C181.814 329.951 181.379 329.931 180.882 329.915C180.394 329.89 179.861 329.878 179.283 329.878C178.722 329.878 178.095 329.886 177.403 329.902C176.72 329.919 175.938 329.976 175.06 330.073L175.157 327.705C175.369 327.681 175.589 327.656 175.816 327.632C176.012 327.616 176.227 327.599 176.463 327.583C176.708 327.559 176.948 327.546 177.184 327.546C177.216 327.074 177.245 326.554 177.269 325.984C177.293 325.406 177.318 324.812 177.342 324.202C177.375 323.583 177.399 322.961 177.416 322.334C177.44 321.707 177.46 321.109 177.477 320.54C177.493 319.962 177.505 319.425 177.513 318.928C177.521 318.432 177.525 318.005 177.525 317.646C177.525 317.199 177.489 316.837 177.416 316.56C177.342 316.283 177.236 316.068 177.098 315.913C176.968 315.75 176.805 315.636 176.61 315.571C176.415 315.498 176.195 315.441 175.951 315.4L175.475 315.327L175.584 312.947C175.943 312.979 176.313 313.008 176.695 313.032C177.021 313.049 177.371 313.065 177.745 313.081C178.128 313.097 178.498 313.105 178.856 313.105C179.442 313.105 179.959 313.097 180.406 313.081C180.854 313.057 181.265 313.036 181.639 313.02C182.014 312.996 182.372 312.975 182.713 312.959C183.055 312.935 183.417 312.922 183.8 312.922C184.817 312.922 185.712 313.04 186.485 313.276C187.267 313.504 187.918 313.838 188.438 314.277C188.967 314.717 189.362 315.25 189.623 315.876C189.891 316.503 190.025 317.211 190.025 318C190.025 318.627 189.936 319.205 189.757 319.734C189.586 320.255 189.346 320.727 189.037 321.15C188.736 321.565 188.382 321.931 187.975 322.249C187.576 322.558 187.145 322.818 186.681 323.03C186.225 323.233 185.753 323.388 185.265 323.494C184.776 323.599 184.3 323.652 183.836 323.652C183.373 323.652 182.929 323.604 182.506 323.506L182.628 320.845C182.783 320.877 182.896 320.898 182.97 320.906C183.043 320.906 183.128 320.906 183.226 320.906C183.56 320.906 183.869 320.845 184.154 320.723C184.439 320.601 184.687 320.426 184.898 320.198C185.11 319.97 185.277 319.693 185.399 319.368C185.521 319.034 185.582 318.66 185.582 318.245C185.582 317.406 185.309 316.764 184.764 316.316C184.219 315.868 183.482 315.645 182.555 315.645C182.416 315.645 182.27 315.653 182.115 315.669C181.969 315.677 181.851 315.689 181.761 315.706ZM204.417 318.696L204.32 318.025C204.279 317.716 204.214 317.463 204.125 317.268C204.035 317.065 203.909 316.906 203.746 316.792C203.591 316.67 203.392 316.58 203.148 316.523C202.904 316.466 202.603 316.418 202.245 316.377L201.073 316.255C201.024 316.963 200.983 317.675 200.951 318.391C200.918 319.107 200.89 319.799 200.865 320.466C200.841 321.134 200.82 321.76 200.804 322.346C200.788 322.932 200.776 323.453 200.768 323.909C200.759 324.356 200.751 324.727 200.743 325.02C200.743 325.312 200.743 325.5 200.743 325.581C200.743 325.988 200.78 326.318 200.853 326.57C200.926 326.814 201.028 327.009 201.158 327.156C201.297 327.302 201.459 327.408 201.646 327.473C201.842 327.538 202.057 327.587 202.293 327.62L202.818 327.705L202.745 330.073C202.379 330.041 201.98 330.008 201.549 329.976C201.174 329.951 200.739 329.931 200.243 329.915C199.754 329.89 199.221 329.878 198.644 329.878C198.082 329.878 197.455 329.886 196.764 329.902C196.08 329.919 195.299 329.976 194.42 330.073L194.493 327.705C194.713 327.681 194.937 327.656 195.165 327.632C195.36 327.616 195.58 327.599 195.824 327.583C196.068 327.559 196.308 327.546 196.544 327.546C196.568 327.074 196.597 326.558 196.629 325.996C196.662 325.435 196.69 324.857 196.715 324.263C196.739 323.66 196.764 323.058 196.788 322.456C196.812 321.846 196.833 321.264 196.849 320.71C196.865 320.149 196.878 319.628 196.886 319.148C196.894 318.66 196.898 318.236 196.898 317.878V315.828C196.548 315.795 196.271 315.771 196.068 315.754C195.864 315.738 195.71 315.726 195.604 315.718C195.506 315.71 195.437 315.706 195.396 315.706C195.364 315.706 195.34 315.706 195.323 315.706C195.087 315.706 194.863 315.746 194.652 315.828C194.448 315.901 194.265 316.031 194.103 316.218C193.948 316.397 193.814 316.641 193.7 316.951C193.586 317.252 193.5 317.634 193.443 318.098L193.37 318.696H190.99L191.173 312.947C191.938 312.987 192.723 313.024 193.529 313.057C193.871 313.073 194.233 313.085 194.615 313.093C195.006 313.101 195.401 313.114 195.799 313.13C196.206 313.138 196.617 313.146 197.032 313.154C197.447 313.154 197.85 313.154 198.241 313.154C199.201 313.154 200.068 313.154 200.841 313.154C201.614 313.146 202.346 313.134 203.038 313.118C203.73 313.101 204.405 313.077 205.064 313.044C205.732 313.004 206.432 312.947 207.164 312.874L206.798 318.696H204.417ZM217.308 327.18C217.788 327.148 218.187 327.066 218.504 326.936C218.822 326.798 219.082 326.606 219.286 326.362C219.497 326.118 219.668 325.817 219.798 325.459C219.929 325.093 220.042 324.657 220.14 324.153H223.058L222.337 330.244C221.003 330.13 219.603 330.045 218.138 329.988C216.681 329.931 215.18 329.902 213.634 329.902C213.154 329.902 212.686 329.906 212.23 329.915C211.782 329.923 211.331 329.935 210.875 329.951C210.427 329.959 209.972 329.976 209.508 330C209.052 330.016 208.58 330.041 208.092 330.073L208.189 327.705C208.434 327.681 208.678 327.656 208.922 327.632C209.133 327.616 209.353 327.599 209.581 327.583C209.817 327.559 210.029 327.546 210.216 327.546C210.248 327.156 210.277 326.692 210.301 326.155C210.334 325.61 210.362 325.032 210.387 324.421C210.411 323.803 210.436 323.172 210.46 322.529C210.484 321.878 210.501 321.252 210.509 320.649C210.525 320.047 210.537 319.486 210.545 318.965C210.554 318.444 210.558 318.005 210.558 317.646C210.558 317.199 210.521 316.837 210.448 316.56C210.375 316.283 210.269 316.068 210.13 315.913C210 315.75 209.837 315.636 209.642 315.571C209.447 315.498 209.227 315.441 208.983 315.4L208.507 315.327L208.617 312.947C209.121 312.996 209.626 313.036 210.13 313.069C210.643 313.101 211.168 313.13 211.705 313.154C212.242 313.179 212.8 313.199 213.377 313.215C213.963 313.223 214.582 313.228 215.233 313.228C216.454 313.228 217.715 313.203 219.017 313.154C220.327 313.105 221.694 313.036 223.119 312.947L222.74 318.696H219.908L219.835 318.025C219.794 317.716 219.733 317.439 219.652 317.195C219.57 316.951 219.448 316.743 219.286 316.572C219.131 316.393 218.932 316.251 218.688 316.145C218.443 316.039 218.142 315.966 217.784 315.925L214.793 315.62L214.635 320.173L219.469 319.978L219.334 323.005L214.537 322.676L214.391 327.351L217.308 327.18ZM246.446 323.774C246.267 325.939 245.576 327.599 244.371 328.755C243.167 329.902 241.425 330.476 239.146 330.476C238.08 330.476 237.12 330.338 236.266 330.061C235.419 329.784 234.699 329.39 234.105 328.877C233.511 328.356 233.051 327.729 232.726 326.997C232.408 326.257 232.25 325.431 232.25 324.519C232.25 324.332 232.254 324.051 232.262 323.677C232.27 323.302 232.282 322.887 232.298 322.432C232.315 321.968 232.331 321.488 232.347 320.991C232.363 320.487 232.38 320.011 232.396 319.563C232.412 319.115 232.424 318.721 232.433 318.379C232.441 318.037 232.445 317.793 232.445 317.646C232.445 317.199 232.408 316.837 232.335 316.56C232.262 316.283 232.156 316.068 232.018 315.913C231.887 315.75 231.725 315.636 231.529 315.571C231.334 315.498 231.114 315.441 230.87 315.4L230.394 315.327L230.504 312.947C230.846 312.987 231.224 313.024 231.639 313.057C231.997 313.081 232.416 313.105 232.896 313.13C233.385 313.146 233.918 313.154 234.496 313.154C235.057 313.154 235.68 313.146 236.363 313.13C237.055 313.114 237.84 313.053 238.719 312.947L238.622 315.327C238.402 315.352 238.182 315.376 237.962 315.4C237.767 315.417 237.551 315.433 237.315 315.449C237.088 315.465 236.856 315.474 236.62 315.474C236.53 317.907 236.465 319.795 236.424 321.138C236.392 322.472 236.375 323.335 236.375 323.726C236.375 324.442 236.465 325.056 236.644 325.569C236.831 326.082 237.083 326.501 237.401 326.826C237.726 327.152 238.105 327.392 238.536 327.546C238.967 327.701 239.431 327.778 239.928 327.778C240.497 327.778 241.002 327.689 241.441 327.51C241.881 327.323 242.247 327.062 242.54 326.729C242.833 326.387 243.053 325.976 243.199 325.496C243.354 325.015 243.435 324.482 243.443 323.896C243.46 322.855 243.472 321.976 243.48 321.26C243.488 320.535 243.496 319.941 243.504 319.478C243.513 319.006 243.517 318.639 243.517 318.379C243.525 318.118 243.529 317.931 243.529 317.817C243.529 317.695 243.529 317.622 243.529 317.598C243.529 317.573 243.529 317.557 243.529 317.549C243.529 317.126 243.488 316.784 243.407 316.523C243.333 316.255 243.228 316.047 243.089 315.901C242.951 315.746 242.784 315.636 242.589 315.571C242.402 315.498 242.19 315.441 241.954 315.4L241.454 315.327L241.551 312.947C241.82 312.987 242.137 313.024 242.503 313.057C242.813 313.081 243.187 313.105 243.626 313.13C244.074 313.146 244.591 313.154 245.177 313.154C245.453 313.154 245.738 313.154 246.031 313.154C246.332 313.146 246.646 313.138 246.971 313.13C247.305 313.114 247.659 313.093 248.033 313.069C248.408 313.036 248.814 312.996 249.254 312.947L249.144 315.327C248.932 315.352 248.713 315.376 248.485 315.4C248.29 315.417 248.07 315.433 247.826 315.449C247.59 315.465 247.354 315.474 247.118 315.474L246.446 323.774ZM263.658 317.952C263.642 317.439 263.589 317.028 263.5 316.719C263.41 316.401 263.288 316.153 263.133 315.974C262.987 315.795 262.804 315.665 262.584 315.583C262.372 315.502 262.128 315.441 261.852 315.4L261.278 315.327L261.375 312.947C261.758 312.987 262.145 313.024 262.535 313.057C262.877 313.081 263.251 313.105 263.658 313.13C264.065 313.146 264.464 313.154 264.854 313.154C265.131 313.154 265.404 313.154 265.672 313.154C265.949 313.146 266.238 313.134 266.539 313.118C266.848 313.101 267.178 313.081 267.528 313.057C267.878 313.032 268.272 312.996 268.712 312.947L268.602 315.303C268.439 315.327 268.264 315.352 268.077 315.376C267.914 315.392 267.727 315.409 267.516 315.425C267.312 315.441 267.092 315.449 266.856 315.449L266.551 323.201C266.527 323.958 266.507 324.645 266.49 325.264C266.474 325.874 266.462 326.444 266.454 326.973C266.445 327.502 266.437 328.01 266.429 328.499C266.429 328.987 266.429 329.479 266.429 329.976L263.902 330.5L255.077 319.648L254.637 319.722L254.857 325.044C254.873 325.557 254.922 325.972 255.003 326.289C255.093 326.606 255.215 326.859 255.37 327.046C255.524 327.225 255.707 327.355 255.919 327.437C256.131 327.518 256.375 327.579 256.651 327.62L257.237 327.705L257.127 330.073C256.753 330.041 256.371 330.008 255.98 329.976C255.638 329.951 255.264 329.931 254.857 329.915C254.45 329.89 254.051 329.878 253.661 329.878C253.376 329.878 253.095 329.882 252.818 329.89C252.55 329.89 252.265 329.898 251.964 329.915C251.663 329.923 251.337 329.943 250.987 329.976C250.637 330 250.243 330.033 249.803 330.073L249.901 327.705C250.064 327.681 250.247 327.656 250.45 327.632C250.613 327.616 250.804 327.599 251.024 327.583C251.244 327.559 251.472 327.546 251.708 327.546L251.976 319.697C252.033 318.436 252.074 317.329 252.098 316.377C252.123 315.425 252.135 314.583 252.135 313.85V313.02L254.552 312.52L263.402 323.372L263.854 323.298L263.658 317.952ZM287.914 318.525C287.914 318.159 287.877 317.781 287.804 317.39C287.73 317 287.584 316.646 287.364 316.328C287.153 316.003 286.847 315.738 286.449 315.535C286.058 315.331 285.537 315.229 284.886 315.229C284.3 315.229 283.731 315.36 283.177 315.62C282.624 315.872 282.127 316.251 281.688 316.755C281.257 317.26 280.911 317.891 280.65 318.647C280.39 319.396 280.26 320.271 280.26 321.272C280.26 322.419 280.439 323.388 280.797 324.177C281.155 324.967 281.631 325.61 282.225 326.106C282.819 326.594 283.499 326.948 284.264 327.168C285.029 327.388 285.814 327.498 286.62 327.498C286.994 327.498 287.364 327.485 287.73 327.461C288.105 327.428 288.459 327.388 288.792 327.339C289.126 327.29 289.435 327.237 289.72 327.18C290.013 327.115 290.27 327.046 290.489 326.973L291.161 329.451C290.778 329.589 290.355 329.723 289.891 329.854C289.427 329.976 288.939 330.085 288.426 330.183C287.914 330.281 287.381 330.358 286.827 330.415C286.274 330.472 285.72 330.5 285.167 330.5C283.759 330.5 282.481 330.313 281.334 329.939C280.187 329.565 279.206 329.011 278.392 328.279C277.578 327.546 276.948 326.643 276.5 325.569C276.061 324.486 275.841 323.237 275.841 321.821C275.841 320.356 276.081 319.046 276.561 317.891C277.041 316.735 277.713 315.763 278.575 314.973C279.446 314.176 280.488 313.569 281.7 313.154C282.921 312.731 284.268 312.52 285.741 312.52C286.375 312.52 286.949 312.54 287.462 312.581C287.975 312.621 288.447 312.674 288.878 312.739C289.309 312.804 289.712 312.882 290.086 312.971C290.461 313.053 290.827 313.138 291.185 313.228L290.99 318.696H287.914V318.525ZM304.356 312.947C304.715 312.987 305.109 313.024 305.541 313.057C305.907 313.081 306.338 313.105 306.834 313.13C307.331 313.146 307.868 313.154 308.446 313.154C309.015 313.154 309.642 313.146 310.326 313.13C311.017 313.114 311.803 313.053 312.682 312.947L312.572 315.327C312.36 315.352 312.14 315.376 311.913 315.4C311.717 315.417 311.502 315.433 311.266 315.449C311.03 315.465 310.794 315.474 310.558 315.474C310.525 315.954 310.493 316.483 310.46 317.061C310.436 317.63 310.411 318.224 310.387 318.843C310.362 319.453 310.338 320.072 310.313 320.698C310.289 321.317 310.269 321.915 310.252 322.493C310.236 323.062 310.224 323.595 310.216 324.092C310.208 324.588 310.204 325.015 310.204 325.374C310.204 325.829 310.24 326.195 310.313 326.472C310.387 326.749 310.488 326.969 310.619 327.131C310.757 327.286 310.924 327.4 311.119 327.473C311.314 327.538 311.534 327.587 311.778 327.62L312.254 327.705L312.157 330.073C311.791 330.041 311.392 330.008 310.96 329.976C310.586 329.951 310.151 329.931 309.654 329.915C309.166 329.89 308.633 329.878 308.055 329.878C307.494 329.878 306.867 329.886 306.175 329.902C305.492 329.919 304.71 329.976 303.832 330.073L303.929 327.705C304.141 327.681 304.361 327.656 304.588 327.632C304.784 327.616 304.999 327.599 305.235 327.583C305.479 327.559 305.72 327.546 305.956 327.546C305.996 326.871 306.037 326.106 306.078 325.251C306.118 324.397 306.151 323.53 306.175 322.651C305.842 322.651 305.427 322.655 304.93 322.664C304.442 322.672 303.897 322.684 303.294 322.7C302.692 322.716 302.053 322.741 301.378 322.773C300.702 322.798 300.019 322.83 299.327 322.871C299.311 323.376 299.303 323.844 299.303 324.275C299.303 324.698 299.303 325.064 299.303 325.374C299.303 325.829 299.339 326.195 299.413 326.472C299.486 326.749 299.588 326.969 299.718 327.131C299.856 327.286 300.023 327.4 300.218 327.473C300.414 327.538 300.633 327.587 300.877 327.62L301.354 327.705L301.256 330.073C300.89 330.041 300.491 330.008 300.06 329.976C299.685 329.951 299.25 329.931 298.753 329.915C298.265 329.89 297.732 329.878 297.154 329.878C296.593 329.878 295.966 329.886 295.274 329.902C294.591 329.919 293.81 329.976 292.931 330.073L293.028 327.705C293.24 327.681 293.46 327.656 293.688 327.632C293.883 327.616 294.098 327.599 294.334 327.583C294.579 327.559 294.819 327.546 295.055 327.546C295.087 327.074 295.116 326.554 295.14 325.984C295.165 325.406 295.189 324.812 295.213 324.202C295.246 323.583 295.27 322.961 295.287 322.334C295.311 321.707 295.331 321.109 295.348 320.54C295.364 319.962 295.376 319.425 295.384 318.928C295.392 318.432 295.396 318.005 295.396 317.646C295.396 317.199 295.36 316.837 295.287 316.56C295.213 316.283 295.108 316.068 294.969 315.913C294.839 315.75 294.676 315.636 294.481 315.571C294.286 315.498 294.066 315.441 293.822 315.4L293.346 315.327L293.456 312.947C293.814 312.987 294.208 313.024 294.64 313.057C295.006 313.081 295.437 313.105 295.934 313.13C296.43 313.146 296.971 313.154 297.557 313.154C298.119 313.154 298.741 313.146 299.425 313.13C300.117 313.114 300.902 313.053 301.781 312.947L301.671 315.327C301.459 315.352 301.24 315.376 301.012 315.4C300.816 315.417 300.601 315.433 300.365 315.449C300.129 315.465 299.893 315.474 299.657 315.474L299.425 319.88H306.273C306.289 319.441 306.297 319.03 306.297 318.647C306.297 318.265 306.297 317.931 306.297 317.646C306.297 317.199 306.261 316.837 306.188 316.56C306.114 316.283 306.008 316.068 305.87 315.913C305.74 315.75 305.577 315.636 305.382 315.571C305.187 315.498 304.967 315.441 304.723 315.4L304.247 315.327L304.356 312.947ZM314.818 312.947C315.176 312.987 315.571 313.024 316.002 313.057C316.368 313.081 316.799 313.105 317.296 313.13C317.792 313.146 318.333 313.154 318.919 313.154C319.481 313.154 320.104 313.146 320.787 313.13C321.479 313.114 322.264 313.053 323.143 312.947L323.033 315.327C322.822 315.352 322.602 315.376 322.374 315.4C322.179 315.417 321.963 315.433 321.727 315.449C321.491 315.465 321.255 315.474 321.019 315.474C320.986 315.954 320.954 316.483 320.921 317.061C320.897 317.63 320.873 318.224 320.848 318.843C320.824 319.453 320.799 320.072 320.775 320.698C320.75 321.317 320.73 321.915 320.714 322.493C320.698 323.062 320.685 323.595 320.677 324.092C320.669 324.588 320.665 325.015 320.665 325.374C320.665 325.829 320.702 326.195 320.775 326.472C320.848 326.749 320.95 326.969 321.08 327.131C321.218 327.286 321.385 327.4 321.581 327.473C321.776 327.538 321.996 327.587 322.24 327.62L322.716 327.705L322.618 330.073C322.252 330.041 321.853 330.008 321.422 329.976C321.048 329.951 320.612 329.931 320.116 329.915C319.627 329.89 319.094 329.878 318.517 329.878C317.955 329.878 317.328 329.886 316.637 329.902C315.953 329.919 315.172 329.976 314.293 330.073L314.391 327.705C314.602 327.681 314.822 327.656 315.05 327.632C315.245 327.616 315.461 327.599 315.697 327.583C315.941 327.559 316.181 327.546 316.417 327.546C316.45 327.074 316.478 326.554 316.502 325.984C316.527 325.406 316.551 324.812 316.576 324.202C316.608 323.583 316.633 322.961 316.649 322.334C316.673 321.707 316.694 321.109 316.71 320.54C316.726 319.962 316.738 319.425 316.747 318.928C316.755 318.432 316.759 318.005 316.759 317.646C316.759 317.199 316.722 316.837 316.649 316.56C316.576 316.283 316.47 316.068 316.332 315.913C316.201 315.75 316.039 315.636 315.843 315.571C315.648 315.498 315.428 315.441 315.184 315.4L314.708 315.327L314.818 312.947ZM333.983 327.18C334.463 327.148 334.862 327.066 335.179 326.936C335.497 326.798 335.757 326.606 335.96 326.362C336.172 326.118 336.343 325.817 336.473 325.459C336.603 325.093 336.717 324.657 336.815 324.153H339.732L339.012 330.244C337.678 330.13 336.278 330.045 334.813 329.988C333.356 329.931 331.855 329.902 330.309 329.902C329.828 329.902 329.361 329.906 328.905 329.915C328.457 329.923 328.006 329.935 327.55 329.951C327.102 329.959 326.646 329.976 326.183 330C325.727 330.016 325.255 330.041 324.767 330.073L324.864 327.705C325.108 327.681 325.353 327.656 325.597 327.632C325.808 327.616 326.028 327.599 326.256 327.583C326.492 327.559 326.703 327.546 326.891 327.546C326.923 327.156 326.952 326.692 326.976 326.155C327.009 325.61 327.037 325.032 327.062 324.421C327.086 323.803 327.11 323.172 327.135 322.529C327.159 321.878 327.175 321.252 327.184 320.649C327.2 320.047 327.212 319.486 327.22 318.965C327.228 318.444 327.232 318.005 327.232 317.646C327.232 317.199 327.196 316.837 327.123 316.56C327.049 316.283 326.944 316.068 326.805 315.913C326.675 315.75 326.512 315.636 326.317 315.571C326.122 315.498 325.902 315.441 325.658 315.4L325.182 315.327L325.292 312.947C325.796 312.996 326.301 313.036 326.805 313.069C327.318 313.101 327.843 313.13 328.38 313.154C328.917 313.179 329.474 313.199 330.052 313.215C330.638 313.223 331.257 313.228 331.908 313.228C333.128 313.228 334.39 313.203 335.692 313.154C337.002 313.105 338.369 313.036 339.793 312.947L339.415 318.696H336.583L336.51 318.025C336.469 317.716 336.408 317.439 336.327 317.195C336.245 316.951 336.123 316.743 335.96 316.572C335.806 316.393 335.606 316.251 335.362 316.145C335.118 316.039 334.817 315.966 334.459 315.925L331.468 315.62L331.31 320.173L336.144 319.978L336.009 323.005L331.212 322.676L331.065 327.351L333.983 327.18ZM355.284 317.952C355.268 317.439 355.215 317.028 355.125 316.719C355.036 316.401 354.914 316.153 354.759 315.974C354.613 315.795 354.43 315.665 354.21 315.583C353.998 315.502 353.754 315.441 353.478 315.4L352.904 315.327L353.001 312.947C353.384 312.987 353.771 313.024 354.161 313.057C354.503 313.081 354.877 313.105 355.284 313.13C355.691 313.146 356.09 313.154 356.48 313.154C356.757 313.154 357.03 313.154 357.298 313.154C357.575 313.146 357.864 313.134 358.165 313.118C358.474 313.101 358.804 313.081 359.154 313.057C359.504 313.032 359.898 312.996 360.338 312.947L360.228 315.303C360.065 315.327 359.89 315.352 359.703 315.376C359.54 315.392 359.353 315.409 359.142 315.425C358.938 315.441 358.718 315.449 358.482 315.449L358.177 323.201C358.153 323.958 358.132 324.645 358.116 325.264C358.1 325.874 358.088 326.444 358.08 326.973C358.071 327.502 358.063 328.01 358.055 328.499C358.055 328.987 358.055 329.479 358.055 329.976L355.528 330.5L346.703 319.648L346.263 319.722L346.483 325.044C346.499 325.557 346.548 325.972 346.629 326.289C346.719 326.606 346.841 326.859 346.996 327.046C347.15 327.225 347.333 327.355 347.545 327.437C347.757 327.518 348.001 327.579 348.277 327.62L348.863 327.705L348.753 330.073C348.379 330.041 347.997 330.008 347.606 329.976C347.264 329.951 346.89 329.931 346.483 329.915C346.076 329.89 345.677 329.878 345.287 329.878C345.002 329.878 344.721 329.882 344.444 329.89C344.176 329.89 343.891 329.898 343.59 329.915C343.289 329.923 342.963 329.943 342.613 329.976C342.263 330 341.869 330.033 341.429 330.073L341.527 327.705C341.69 327.681 341.873 327.656 342.076 327.632C342.239 327.616 342.43 327.599 342.65 327.583C342.87 327.559 343.097 327.546 343.333 327.546L343.602 319.697C343.659 318.436 343.7 317.329 343.724 316.377C343.749 315.425 343.761 314.583 343.761 313.85V313.02L346.178 312.52L355.028 323.372L355.479 323.298L355.284 317.952Z" fill="black"/>
</g>
<defs>
<filter id="filter0_d" x="78.9573" y="51.5609" width="167.013" height="99.5311" filterUnits="userSpaceOnUse" color-interpolation-filters="sRGB">
<feFlood flood-opacity="0" result="BackgroundImageFix"/>
<feColorMatrix in="SourceAlpha" type="matrix" values="0 0 0 0 0 0 0 0 0 0 0 0 0 0 0 0 0 0 127 0" result="hardAlpha"/>
<feOffset dy="4"/>
<feGaussianBlur stdDeviation="2"/>
<feComposite in2="hardAlpha" operator="out"/>
<feColorMatrix type="matrix" values="0 0 0 0 0 0 0 0 0 0 0 0 0 0 0 0 0 0 0.25 0"/>
<feBlend mode="normal" in2="BackgroundImageFix" result="effect1_dropShadow"/>
<feBlend mode="normal" in="SourceGraphic" in2="effect1_dropShadow" result="shape"/>
</filter>
<filter id="filter1_d" x="93.5" y="133" width="11" height="200" filterUnits="userSpaceOnUse" color-interpolation-filters="sRGB">
<feFlood flood-opacity="0" result="BackgroundImageFix"/>
<feColorMatrix in="SourceAlpha" type="matrix" values="0 0 0 0 0 0 0 0 0 0 0 0 0 0 0 0 0 0 127 0" result="hardAlpha"/>
<feOffset dy="4"/>
<feGaussianBlur stdDeviation="2"/>
<feComposite in2="hardAlpha" operator="out"/>
<feColorMatrix type="matrix" values="0 0 0 0 0 0 0 0 0 0 0 0 0 0 0 0 0 0 0.25 0"/>
<feBlend mode="normal" in2="BackgroundImageFix" result="effect1_dropShadow"/>
<feBlend mode="normal" in="SourceGraphic" in2="effect1_dropShadow" result="shape"/>
</filter>
<filter id="filter2_d" x="373" y="131.169" width="11" height="200" filterUnits="userSpaceOnUse" color-interpolation-filters="sRGB">
<feFlood flood-opacity="0" result="BackgroundImageFix"/>
<feColorMatrix in="SourceAlpha" type="matrix" values="0 0 0 0 0 0 0 0 0 0 0 0 0 0 0 0 0 0 127 0" result="hardAlpha"/>
<feOffset dy="4"/>
<feGaussianBlur stdDeviation="2"/>
<feComposite in2="hardAlpha" operator="out"/>
<feColorMatrix type="matrix" values="0 0 0 0 0 0 0 0 0 0 0 0 0 0 0 0 0 0 0.25 0"/>
<feBlend mode="normal" in2="BackgroundImageFix" result="effect1_dropShadow"/>
<feBlend mode="normal" in="SourceGraphic" in2="effect1_dropShadow" result="shape"/>
</filter>
<filter id="filter3_d" x="233.946" y="51.7837" width="166.75" height="100.012" filterUnits="userSpaceOnUse" color-interpolation-filters="sRGB">
<feFlood flood-opacity="0" result="BackgroundImageFix"/>
<feColorMatrix in="SourceAlpha" type="matrix" values="0 0 0 0 0 0 0 0 0 0 0 0 0 0 0 0 0 0 127 0" result="hardAlpha"/>
<feOffset dy="4"/>
<feGaussianBlur stdDeviation="2"/>
<feComposite in2="hardAlpha" operator="out"/>
<feColorMatrix type="matrix" values="0 0 0 0 0 0 0 0 0 0 0 0 0 0 0 0 0 0 0.25 0"/>
<feBlend mode="normal" in2="BackgroundImageFix" result="effect1_dropShadow"/>
<feBlend mode="normal" in="SourceGraphic" in2="effect1_dropShadow" result="shape"/>
</filter>
<filter id="filter4_d" x="126" y="109" width="228" height="194.862" filterUnits="userSpaceOnUse" color-interpolation-filters="sRGB">
<feFlood flood-opacity="0" result="BackgroundImageFix"/>
<feColorMatrix in="SourceAlpha" type="matrix" values="0 0 0 0 0 0 0 0 0 0 0 0 0 0 0 0 0 0 127 0" result="hardAlpha"/>
<feOffset dy="4"/>
<feGaussianBlur stdDeviation="2"/>
<feComposite in2="hardAlpha" operator="out"/>
<feColorMatrix type="matrix" values="0 0 0 0 0 0 0 0 0 0 0 0 0 0 0 0 0 0 0.25 0"/>
<feBlend mode="normal" in2="BackgroundImageFix" result="effect1_dropShadow"/>
<feBlend mode="normal" in="SourceGraphic" in2="effect1_dropShadow" result="shape"/>
</filter>
<filter id="filter5_d" x="112.698" y="312.52" width="251.64" height="25.981" filterUnits="userSpaceOnUse" color-interpolation-filters="sRGB">
<feFlood flood-opacity="0" result="BackgroundImageFix"/>
<feColorMatrix in="SourceAlpha" type="matrix" values="0 0 0 0 0 0 0 0 0 0 0 0 0 0 0 0 0 0 127 0" result="hardAlpha"/>
<feOffset dy="4"/>
<feGaussianBlur stdDeviation="2"/>
<feComposite in2="hardAlpha" operator="out"/>
<feColorMatrix type="matrix" values="0 0 0 0 0 0 0 0 0 0 0 0 0 0 0 0 0 0 0.25 0"/>
<feBlend mode="normal" in2="BackgroundImageFix" result="effect1_dropShadow"/>
<feBlend mode="normal" in="SourceGraphic" in2="effect1_dropShadow" result="shape"/>
</filter>
<clipPath id="clip0">
<rect width="220" height="186.862" fill="white" transform="translate(130 109)"/>
</clipPath>
</defs>
</svg>
